<svg width="16" height="16" viewBox="0 0 16 16" fill="none" xmlns="http://www.w3.org/2000/svg">
<g clip-path="url(#clip0_16689_24682)">
<path d="M4.375 14.3004H11.625C12.3222 14.3004 12.6707 14.3004 12.9591 14.2302C13.9422 13.9909 14.7098 13.1721 14.9342 12.1235C15 11.8159 15 11.444 15 10.7004V7.47231C15 6.60417 14.3402 5.90039 13.5263 5.90039C12.7124 5.90039 12.0526 6.60417 12.0526 7.47231V11.0337H3.94737V7.47231C3.94737 6.60417 3.28758 5.90039 2.47368 5.90039C1.65979 5.90039 1 6.60417 1 7.47231V10.7004C1 11.444 1 11.8159 1.06581 12.1235C1.29019 13.1721 2.05783 13.9909 3.04089 14.2302C3.32924 14.3004 3.67782 14.3004 4.375 14.3004Z" stroke="#FFC068" stroke-width="0.933333" stroke-linejoin="round"/>
<path d="M3.80078 6.6V5.3077C3.80078 3.69727 3.80078 2.89207 4.1384 2.29231C4.35957 1.8994 4.67769 1.57312 5.06078 1.34628C5.64555 1 6.43063 1 8.00078 1C9.57095 1 10.356 1 10.9408 1.34628C11.3239 1.57312 11.642 1.8994 11.8632 2.29231C12.2008 2.89207 12.2008 3.69727 12.2008 5.3077V6.6" stroke="#FFC068" stroke-width="0.933333"/>
<path d="M12.8984 15.0008V14.3008M2.39844 15.0008V14.3008" stroke="#FFC068" stroke-width="0.933333" stroke-linecap="round"/>
</g>
<defs>
<clipPath id="clip0_16689_24682">
<rect width="16" height="16" fill="white"/>
</clipPath>
</defs>
</svg>
