<svg width="20" height="20" viewBox="0 0 20 20" fill="none" xmlns="http://www.w3.org/2000/svg">
<path d="M11.6667 1.66667C11.6667 0.746192 10.9205 0 10 0C9.0795 0 8.33333 0.746192 8.33333 1.66667V8.33333H1.66667C0.746167 8.33333 0 9.0795 0 10C0 10.9205 0.746167 11.6667 1.66667 11.6667H8.33333V18.3333C8.33333 19.2538 9.0795 20 10 20C10.9205 20 11.6667 19.2538 11.6667 18.3333V11.6667H18.3333C19.2538 11.6667 20 10.9205 20 10C20 9.0795 19.2538 8.33333 18.3333 8.33333H11.6667V1.66667Z" fill="#737373"/>
</svg>
