<svg width="24" height="24" viewBox="0 0 24 24" fill="none" xmlns="http://www.w3.org/2000/svg">
<path fill-rule="evenodd" clip-rule="evenodd" d="M11.8312 3.00316C11.9437 2.99895 12.0563 2.99895 12.1688 3.00316C12.9114 3.03096 13.58 3.28864 14.3132 3.7176C15.0277 4.13562 15.8502 4.74549 16.8939 5.5193L16.9506 5.56137C17.9943 6.33517 18.8168 6.94504 19.4272 7.5093C20.0535 8.08831 20.5003 8.65766 20.7556 9.36979C20.7943 9.47766 20.8291 9.58695 20.86 9.69743C21.0635 10.4267 21.03 11.1553 20.8568 11.9995C20.688 12.8221 20.3738 13.8089 19.9752 15.0609L19.9535 15.129C19.5549 16.381 19.2407 17.3678 18.9034 18.1346C18.5574 18.9214 18.1648 19.5309 17.5801 19.9988C17.4915 20.0697 17.4004 20.1373 17.307 20.2013C16.7187 20.6047 16.0642 20.7987 15.2751 20.8962C14.4357 21 13.3862 21 12.0402 21H11.9598C10.6138 21 9.56429 21 8.72486 20.8962C7.93576 20.7987 7.28133 20.6047 6.69303 20.2013C6.5996 20.1373 6.5085 20.0697 6.41993 19.9988C5.83518 19.5309 5.44263 18.9214 5.09657 18.1346C4.75932 17.3678 4.44513 16.381 4.04649 15.1289L4.02482 15.0609C3.6262 13.8089 3.31198 12.822 3.1432 11.9995C2.97 11.1553 2.93648 10.4267 3.14004 9.69743C3.17087 9.58695 3.20567 9.47766 3.24435 9.36979C3.49973 8.65766 3.94651 8.08831 4.57283 7.5093C5.1832 6.94504 6.00575 6.33517 7.04943 5.56136L7.10617 5.51929C8.14981 4.74548 8.97235 4.13562 9.68681 3.7176C10.42 3.28864 11.0886 3.03096 11.8312 3.00316ZM12.1248 4.22805C12.0416 4.22494 11.9584 4.22494 11.8752 4.22805C11.3985 4.2459 10.9236 4.40686 10.2842 4.78095C9.6326 5.1622 8.86202 5.73251 7.78376 6.53197C6.7055 7.33143 5.93588 7.90309 5.37922 8.4177C4.833 8.92266 4.53626 9.33381 4.37229 9.79103C4.3437 9.87077 4.31798 9.95154 4.29519 10.0332C4.16449 10.5015 4.16775 11.0121 4.3188 11.7482C4.47274 12.4985 4.76612 13.4226 5.17798 14.7162C5.58983 16.0097 5.88476 16.9333 6.19234 17.6326C6.49414 18.3188 6.78561 18.7339 7.16106 19.0343C7.22653 19.0867 7.29386 19.1366 7.36292 19.184C7.59957 19.3462 7.86506 19.4667 8.19653 19.5547V17.357C8.19653 15.2133 9.8994 13.4755 12 13.4755C14.1006 13.4755 15.8035 15.2133 15.8035 17.357V19.5547C16.1349 19.4667 16.4004 19.3462 16.6371 19.184C16.7061 19.1366 16.7735 19.0867 16.8389 19.0343C17.2144 18.7339 17.5059 18.3188 17.8077 17.6326C18.1152 16.9333 18.4102 16.0097 18.822 14.7162C19.2339 13.4226 19.5273 12.4985 19.6812 11.7482C19.8323 11.0121 19.8355 10.5015 19.7048 10.0332C19.682 9.95155 19.6563 9.87077 19.6277 9.79103C19.4637 9.33381 19.167 8.92266 18.6208 8.4177C18.0641 7.90309 17.2945 7.33143 16.2162 6.53197C15.138 5.73251 14.3674 5.1622 13.7158 4.78095C13.0764 4.40686 12.6015 4.2459 12.1248 4.22805ZM12 14.7013C10.5627 14.7013 9.39763 15.8903 9.39763 17.357V19.7284C10.073 19.7736 10.9084 19.7743 12 19.7743C13.0916 19.7743 13.927 19.7736 14.6024 19.7284V17.357C14.6024 15.8903 13.4372 14.7013 12 14.7013Z" fill="#FAFAFA"/>
</svg>
