<svg width="24" height="24" viewBox="0 0 24 24" fill="none" xmlns="http://www.w3.org/2000/svg">
<path d="M16.8457 2.31338C16.5713 1.89554 15.9419 1.89554 15.6675 2.31338L14.982 3.35715C14.9272 3.44069 14.8541 3.51155 14.7678 3.56472L13.6908 4.22899C13.2597 4.49492 13.2597 5.10488 13.6908 5.3708L14.7678 6.03507C14.8541 6.08824 14.9272 6.1591 14.982 6.24265L15.6675 7.28641C15.9419 7.70426 16.5713 7.70426 16.8457 7.28641L17.5311 6.24265C17.586 6.1591 17.6591 6.08824 17.7453 6.03507L18.8223 5.3708C19.2535 5.10488 19.2535 4.49492 18.8223 4.22899L17.7453 3.56472C17.6591 3.51155 17.586 3.44069 17.5311 3.35715L16.8457 2.31338Z" fill="#F7F9FC"/>
<path d="M20.2585 7.96026C20.0378 7.56915 19.4582 7.56915 19.2374 7.96026L19.0068 8.3689C18.9534 8.46353 18.8731 8.54132 18.7755 8.59307L18.3538 8.81657C17.9503 9.03047 17.9503 9.5922 18.3538 9.8061L18.7755 10.0296C18.8731 10.0813 18.9534 10.1591 19.0068 10.2538L19.2374 10.6624C19.4582 11.0535 20.0378 11.0535 20.2585 10.6624L20.4891 10.2538C20.5425 10.1591 20.6228 10.0813 20.7204 10.0296L21.1421 9.8061C21.5457 9.5922 21.5457 9.03047 21.1421 8.81657L20.7204 8.59307C20.6228 8.54132 20.5425 8.46353 20.4891 8.3689L20.2585 7.96026Z" fill="#F7F9FC"/>
<path fill-rule="evenodd" clip-rule="evenodd" d="M9.25541 2.67686C9.8519 2.5036 10.4035 2.73126 10.7308 3.10319C11.0466 3.4621 11.1828 3.97782 11.0286 4.48086C10.8335 5.11719 10.7285 5.79202 10.7285 6.49212C10.7285 10.3852 13.9851 13.5412 18.0022 13.5412C18.7246 13.5412 19.421 13.4394 20.0776 13.2504C20.5966 13.1009 21.1288 13.2329 21.4992 13.539C21.8829 13.8562 22.1178 14.3908 21.9391 14.9688C20.6814 19.0354 16.7907 22.0002 12.1832 22.0002C6.55919 22.0002 2 17.5818 2 12.1314C2 7.66622 5.05929 3.89569 9.25541 2.67686ZM8.98279 6.49212C8.98279 5.79718 9.06665 5.12025 9.22539 4.47072C6.02371 5.63218 3.7457 8.62498 3.7457 12.1314C3.7457 16.6474 7.52331 20.3084 12.1832 20.3084C15.8014 20.3084 18.8896 18.1007 20.088 14.9979C19.4178 15.1518 18.7193 15.233 18.0022 15.233C13.0209 15.233 8.98279 11.3196 8.98279 6.49212Z" fill="#F7F9FC"/>
</svg>
